<mxfile host="app.diagrams.net" modified="2024-05-28T11:53:30.246Z" agent="Mozilla/5.0 (Windows NT 10.0; Win64; x64) AppleWebKit/537.36 (KHTML, like Gecko) Chrome/121.0.0.0 Safari/537.36" etag="4Rq95tYBRs4mJjyedK86" version="24.4.9" type="device">
  <diagram name="PÃ¡gina-1" id="oBcEbnFdOaQVc-NtALwM">
    <mxGraphModel dx="1434" dy="782" grid="1" gridSize="10" guides="1" tooltips="1" connect="1" arrows="1" fold="1" page="1" pageScale="1" pageWidth="827" pageHeight="1169" math="0" shadow="0">
      <root>
        <mxCell id="0" />
        <mxCell id="1" parent="0" />
        <mxCell id="0xozX7nuZxsAZm8VR_Oy-1" value="" style="rounded=1;whiteSpace=wrap;html=1;fillColor=#000000;" vertex="1" parent="1">
          <mxGeometry x="249" y="80" width="330" height="585" as="geometry" />
        </mxCell>
        <mxCell id="0xozX7nuZxsAZm8VR_Oy-2" value="&lt;font style=&quot;font-size: 36px;&quot; color=&quot;#33ffff&quot;&gt;&lt;b&gt;CORTE&lt;/b&gt;&lt;/font&gt;" style="text;html=1;align=center;verticalAlign=middle;whiteSpace=wrap;rounded=0;" vertex="1" parent="1">
          <mxGeometry x="290" y="80" width="244" height="100" as="geometry" />
        </mxCell>
        <mxCell id="0xozX7nuZxsAZm8VR_Oy-3" value="" style="rounded=0;whiteSpace=wrap;html=1;" vertex="1" parent="1">
          <mxGeometry x="354" y="200" width="120" height="60" as="geometry" />
        </mxCell>
        <mxCell id="0xozX7nuZxsAZm8VR_Oy-4" value="" style="rounded=0;whiteSpace=wrap;html=1;" vertex="1" parent="1">
          <mxGeometry x="354" y="270" width="120" height="60" as="geometry" />
        </mxCell>
        <mxCell id="0xozX7nuZxsAZm8VR_Oy-5" value="" style="rounded=0;whiteSpace=wrap;html=1;" vertex="1" parent="1">
          <mxGeometry x="354" y="350" width="120" height="60" as="geometry" />
        </mxCell>
        <mxCell id="0xozX7nuZxsAZm8VR_Oy-6" value="" style="rounded=0;whiteSpace=wrap;html=1;" vertex="1" parent="1">
          <mxGeometry x="354" y="430" width="120" height="60" as="geometry" />
        </mxCell>
      </root>
    </mxGraphModel>
  </diagram>
</mxfile>
